<svg width="39" height="33" viewBox="0 0 39 33" fill="none" xmlns="http://www.w3.org/2000/svg">
<path d="M3.04688 7.08984V29.7773C3.04688 30.1333 3.38797 30.4219 3.80859 30.4219H35.1914C35.612 30.4219 35.9531 30.1333 35.9531 29.7773V7.08984C35.9531 6.73393 35.612 6.44531 35.1914 6.44531H3.80859C3.38797 6.44531 3.04688 6.73393 3.04688 7.08984ZM4.57031 7.73438H34.4297V29.1328H4.57031V7.73438Z" fill="#847073"/>
<path d="M12.0946 19.7084C12.5964 20.0702 13.1153 20.4443 13.6665 20.8523C13.81 20.9586 13.989 21.0117 14.168 21.0117C14.347 21.0117 14.5259 20.9586 14.6695 20.8523C15.2206 20.4443 15.7395 20.0702 16.2414 19.7084C19.121 17.6324 21.0234 16.2609 21.0234 14.1694C21.0234 12.2663 19.4279 10.6992 17.2148 10.6992C15.7018 10.6992 14.742 11.4302 14.168 12.1362C13.5939 11.4302 12.6342 10.6992 11.1211 10.6992C8.90777 10.6992 7.3125 12.2664 7.3125 14.1694C7.3125 16.2609 9.21497 17.6324 12.0946 19.7084ZM11.1211 11.9883C12.8177 11.9883 13.4096 13.6991 13.4341 13.7725C13.5258 14.0512 13.8259 14.2441 14.168 14.2441C14.511 14.2441 14.8118 14.0501 14.9026 13.7702C14.9084 13.7522 15.4999 11.9883 17.2148 11.9883C18.5176 11.9883 19.5 12.9259 19.5 14.1694C19.5 15.6657 17.9016 16.8181 15.2533 18.7272C14.902 18.9806 14.5422 19.2399 14.168 19.5134C13.7937 19.2399 13.434 18.9805 13.0826 18.7272C10.4343 16.8181 8.83594 15.6657 8.83594 14.1694C8.83594 12.9259 9.81833 11.9883 11.1211 11.9883Z" fill="#847073"/>
<path d="M31.3828 15.8555H24.0703C23.6497 15.8555 23.3086 16.1441 23.3086 16.5C23.3086 16.8559 23.6497 17.1445 24.0703 17.1445H31.3828C31.8034 17.1445 32.1445 16.8559 32.1445 16.5C32.1445 16.1441 31.8034 15.8555 31.3828 15.8555Z" fill="#847073"/>
<path d="M31.3828 12.6328H24.0703C23.6497 12.6328 23.3086 12.9214 23.3086 13.2773C23.3086 13.6333 23.6497 13.9219 24.0703 13.9219H31.3828C31.8034 13.9219 32.1445 13.6333 32.1445 13.2773C32.1445 12.9214 31.8034 12.6328 31.3828 12.6328Z" fill="#847073"/>
<path d="M31.3828 19.0781H24.0703C23.6497 19.0781 23.3086 19.3667 23.3086 19.7227C23.3086 20.0786 23.6497 20.3672 24.0703 20.3672H31.3828C31.8034 20.3672 32.1445 20.0786 32.1445 19.7227C32.1445 19.3667 31.8034 19.0781 31.3828 19.0781Z" fill="#847073"/>
<path d="M31.3828 22.3008H8.83594C8.41532 22.3008 8.07422 22.5894 8.07422 22.9453C8.07422 23.3012 8.41532 23.5898 8.83594 23.5898H31.3828C31.8034 23.5898 32.1445 23.3012 32.1445 22.9453C32.1445 22.5894 31.8034 22.3008 31.3828 22.3008Z" fill="#847073"/>
<path d="M31.3828 25.5234H8.83594C8.41532 25.5234 8.07422 25.8121 8.07422 26.168C8.07422 26.5239 8.41532 26.8125 8.83594 26.8125H31.3828C31.8034 26.8125 32.1445 26.5239 32.1445 26.168C32.1445 25.8121 31.8034 25.5234 31.3828 25.5234Z" fill="#847073"/>
<path d="M7.3125 4.51172C7.73312 4.51172 8.07422 4.2231 8.07422 3.86719C8.07422 3.51128 7.73312 3.22266 7.3125 3.22266H5.78906C5.36844 3.22266 5.02734 3.51128 5.02734 3.86719C5.02734 4.2231 5.36844 4.51172 5.78906 4.51172H7.3125Z" fill="#847073"/>
<path d="M11.8828 4.51172C12.3034 4.51172 12.6445 4.2231 12.6445 3.86719C12.6445 3.51128 12.3034 3.22266 11.8828 3.22266H10.3594C9.93875 3.22266 9.59766 3.51128 9.59766 3.86719C9.59766 4.2231 9.93875 4.51172 10.3594 4.51172H11.8828Z" fill="#847073"/>
<path d="M16.4531 4.51172C16.8737 4.51172 17.2148 4.2231 17.2148 3.86719C17.2148 3.51128 16.8737 3.22266 16.4531 3.22266H14.9297C14.5091 3.22266 14.168 3.51128 14.168 3.86719C14.168 4.2231 14.5091 4.51172 14.9297 4.51172H16.4531Z" fill="#847073"/>
<path d="M33.668 4.51172C34.0886 4.51172 34.4297 4.2231 34.4297 3.86719C34.4297 3.51128 34.0886 3.22266 33.668 3.22266H22.5469C22.1263 3.22266 21.7852 3.51128 21.7852 3.86719C21.7852 4.2231 22.1263 4.51172 22.5469 4.51172H33.668Z" fill="#847073"/>
<path d="M19.5 33C19.9207 33 20.2617 32.7114 20.2617 32.3555C20.2617 31.9995 19.9207 31.7109 19.5 31.7109C19.0793 31.7109 18.7383 31.9995 18.7383 32.3555C18.7383 32.7114 19.0793 33 19.5 33Z" fill="#847073"/>
<path d="M38.2383 0H0.761719C0.341098 0 0 0.288621 0 0.644531V32.3555C0 32.7114 0.341098 33 0.761719 33H16.0723C16.4929 33 16.834 32.7114 16.834 32.3555C16.834 31.9996 16.4929 31.7109 16.0723 31.7109H1.52344V1.28906H37.4766V31.7109H22.9277C22.5071 31.7109 22.166 31.9996 22.166 32.3555C22.166 32.7114 22.5071 33 22.9277 33H38.2383C38.6589 33 39 32.7114 39 32.3555V0.644531C39 0.288621 38.6589 0 38.2383 0Z" fill="#847073"/>
</svg>
