<svg width="30" height="33" viewBox="0 0 30 33" fill="none" xmlns="http://www.w3.org/2000/svg">
<path d="M17.2266 29.584V27.6504H19.4531C19.863 27.6504 20.1953 27.3618 20.1953 27.0059V24.4277C20.1953 24.0718 19.863 23.7832 19.4531 23.7832H17.2266V21.8496C17.2266 21.4937 16.8943 21.2051 16.4844 21.2051H13.5156C13.1057 21.2051 12.7734 21.4937 12.7734 21.8496V23.7832H10.5469C10.137 23.7832 9.80469 24.0718 9.80469 24.4277V27.0059C9.80469 27.3618 10.137 27.6504 10.5469 27.6504H12.7734V29.584C12.7734 29.9399 13.1057 30.2285 13.5156 30.2285H16.4844C16.8943 30.2285 17.2266 29.9399 17.2266 29.584ZM15.7422 27.0059V28.9395H14.2578V27.0059C14.2578 26.6499 13.9255 26.3613 13.5156 26.3613H11.2891V25.0723H13.5156C13.9255 25.0723 14.2578 24.7836 14.2578 24.4277V22.4941H15.7422V24.4277C15.7422 24.7836 16.0745 25.0723 16.4844 25.0723H18.7109V26.3613H16.4844C16.0745 26.3613 15.7422 26.6499 15.7422 27.0059Z" fill="#847073"/>
<path d="M1.04821 12.6344L6.36198 18.7487C5.7542 19.0943 5.35156 19.6906 5.35156 20.3672V31.0664C5.35156 32.1326 6.3504 33 7.57813 33H11.6602C12.0701 33 12.4023 32.7114 12.4023 32.3555C12.4023 31.9996 12.0701 31.7109 11.6602 31.7109H7.57813C7.16888 31.7109 6.83594 31.4218 6.83594 31.0664V20.3672C6.83594 20.0118 7.16888 19.7227 7.57813 19.7227H22.4195C22.4201 19.7227 22.4208 19.7227 22.4214 19.7227C22.421 19.7227 22.4217 19.7227 22.4214 19.7227C22.8305 19.7229 23.1641 20.0119 23.1641 20.3672V31.0664C23.1641 31.4218 22.8312 31.7109 22.422 31.7109H18.3399C17.93 31.7109 17.5977 31.9996 17.5977 32.3555C17.5977 32.7114 17.93 33 18.3399 33H22.422C23.6497 33 24.6485 32.1326 24.6485 31.0664V20.3672C24.6485 19.6906 24.2459 19.0943 23.6381 18.7487L28.9519 12.6344C29.0491 12.5225 29.1016 12.3793 29.1016 12.2461C29.1016 12.2449 29.1016 12.2406 29.1016 12.2397C29.0975 5.49012 22.7732 0 15 0C7.22685 0 0.902519 5.49012 0.898512 12.2397C0.898512 12.2406 0.898438 12.2449 0.898438 12.2461C0.898438 12.3787 0.951133 12.5227 1.04821 12.6344ZM15.7422 18.4336V12.5512C16.2983 12.1823 17.3777 11.6016 18.3398 11.6016C19.219 11.6016 20.2063 12.094 20.7935 12.4599L18.1977 18.4336H15.7422ZM14.2578 18.4336H11.8023L9.20656 12.46C9.79422 12.0937 10.7813 11.6016 11.6602 11.6016C12.6158 11.6016 13.6995 12.1836 14.2578 12.5522V18.4336ZM7.69435 12.6311L10.2157 18.4336H7.94781L2.67709 12.3689C3.27366 12.0173 4.17282 11.6016 4.98047 11.6016C6.00766 11.6016 7.18269 12.2739 7.69435 12.6311ZM22.0522 18.4336H19.7843L22.3061 12.6302C22.8158 12.2725 23.9853 11.6016 25.0195 11.6016C25.8273 11.6016 26.7267 12.0175 27.3229 12.3688L22.0522 18.4336ZM15 1.28906C21.4589 1.28906 26.7989 5.52576 27.5307 10.967C26.836 10.6292 25.9398 10.3125 25.0195 10.3125C24.045 10.3125 23.0969 10.6676 22.3871 11.0268C22.2788 9.08641 21.913 7.23164 21.3117 5.60394C21.1865 5.26492 20.7683 5.07858 20.3783 5.18706C19.9879 5.29586 19.7731 5.65873 19.8983 5.99769C20.4504 7.49222 20.7905 9.1983 20.899 10.9904C20.198 10.644 19.2814 10.3125 18.3398 10.3125C17.381 10.3125 16.448 10.6563 15.7422 11.0095V5.80078C15.7422 5.44487 15.4099 5.15625 15 5.15625C14.5901 5.15625 14.2578 5.44487 14.2578 5.80078V11.0095C13.552 10.6563 12.619 10.3125 11.6602 10.3125C10.7186 10.3125 9.80202 10.644 9.10095 10.9904C9.20945 9.19836 9.54953 7.49222 10.1016 5.99769C10.2268 5.65873 10.012 5.29579 9.62167 5.18706C9.23135 5.07845 8.81342 5.26498 8.68822 5.60394C8.0869 7.23164 7.72107 9.08641 7.61279 11.0268C6.90311 10.6676 5.95504 10.3125 4.98047 10.3125C4.06016 10.3125 3.16397 10.6292 2.46928 10.967C3.20115 5.52576 8.54111 1.28906 15 1.28906Z" fill="#847073"/>
<path d="M15 33C15.4099 33 15.7422 32.7114 15.7422 32.3555C15.7422 31.9995 15.4099 31.7109 15 31.7109C14.5901 31.7109 14.2578 31.9995 14.2578 32.3555C14.2578 32.7114 14.5901 33 15 33Z" fill="#847073"/>
</svg>
