<svg width="39" height="33" viewBox="0 0 39 33" fill="none" xmlns="http://www.w3.org/2000/svg">
<path d="M26.3555 22.7416C26.3555 20.8385 24.76 19.2715 22.5469 19.2715C21.0339 19.2715 20.0742 20.0025 19.5001 20.7084C18.926 20.0025 17.9663 19.2715 16.4532 19.2715C14.2398 19.2715 12.6446 20.8387 12.6446 22.7416C12.6446 24.8331 14.547 26.2046 17.4267 28.2806C17.9285 28.6424 18.4475 29.0166 18.9986 29.4245C19.1421 29.5308 19.3211 29.584 19.5001 29.584C19.6791 29.584 19.858 29.5308 20.0016 29.4245C20.5527 29.0166 21.0717 28.6424 21.5735 28.2806C24.4531 26.2047 26.3555 24.8332 26.3555 22.7416ZM19.5001 28.0856C19.1258 27.8121 18.7661 27.5528 18.4147 27.2995C15.7665 25.3903 14.168 24.2379 14.168 22.7416C14.168 21.4982 15.1504 20.5605 16.4532 20.5605C18.1462 20.5605 18.7392 22.264 18.7661 22.3443C18.8576 22.6232 19.1578 22.8164 19.5001 22.8164C19.8432 22.8164 20.1439 22.6223 20.2347 22.3424C20.2405 22.3246 20.8321 20.5605 22.5469 20.5605C23.8497 20.5605 24.8321 21.4982 24.8321 22.7416C24.8321 24.2379 23.2336 25.3903 20.5854 27.2995C20.234 27.5528 19.8743 27.8121 19.5001 28.0856Z" fill="#847073"/>
<path d="M38.8431 11.8547C38.587 11.5722 38.1089 11.5191 37.7751 11.7357L31.4295 15.8564H27.8796V10.3135H31.6881C32.1088 10.3135 32.4499 10.0248 32.4499 9.66893V4.51269C32.4499 2.02493 30.0579 0.000976562 27.1178 0.000976562H11.8835C8.94343 0.000976562 6.55148 2.02493 6.55148 4.51269V9.66893C6.55148 10.0248 6.8925 10.3135 7.3132 10.3135H11.1218V15.8564H7.57173L1.22609 11.7357C0.892307 11.5191 0.414101 11.5723 0.158088 11.8547C-0.0980012 12.137 -0.0351596 12.5416 0.298625 12.7584L6.55141 16.8188V32.3563C6.55141 32.7122 6.89243 33.0008 7.31312 33.0008H16.0729C16.4936 33.0008 16.8346 32.7122 16.8346 32.3563C16.8346 32.0004 16.4936 31.7118 16.0729 31.7118H8.07484V17.1454H30.9264V31.7118H22.9283C22.5076 31.7118 22.1666 32.0004 22.1666 32.3563C22.1666 32.7122 22.5076 33.0008 22.9283 33.0008H31.6881C32.1088 33.0008 32.4498 32.7122 32.4498 32.3563V16.8188L38.7026 12.7584C39.0363 12.5416 39.0992 12.137 38.8431 11.8547ZM23.2325 1.29004C22.8786 2.75924 21.3398 3.86816 19.5005 3.86816C17.6612 3.86816 16.1225 2.75924 15.7686 1.29004H23.2325ZM12.6451 5.80175C12.6451 5.44584 12.3041 5.15722 11.8834 5.15722C11.4627 5.15722 11.1217 5.44584 11.1217 5.80175V9.0244H8.07484V4.51269C8.07484 2.73572 9.78337 1.29004 11.8834 1.29004H14.2239C14.5948 3.47345 16.8192 5.15722 19.5006 5.15722C22.182 5.15722 24.4065 3.47345 24.7773 1.29004H27.1178C29.2178 1.29004 30.9264 2.73572 30.9264 4.51269V9.0244H27.8795V5.80175C27.8795 5.44584 27.5385 5.15722 27.1178 5.15722C26.6971 5.15722 26.3561 5.44584 26.3561 5.80175V15.8564H12.6451V5.80175Z" fill="#847073"/>
<path d="M19.5001 33.0001C19.9208 33.0001 20.2618 32.7115 20.2618 32.3555C20.2618 31.9996 19.9208 31.711 19.5001 31.711C19.0794 31.711 18.7384 31.9996 18.7384 32.3555C18.7384 32.7115 19.0794 33.0001 19.5001 33.0001Z" fill="#847073"/>
</svg>
