<svg width="64" height="55" viewBox="0 0 64 55" fill="none" xmlns="http://www.w3.org/2000/svg">
<path d="M32.0087 0.000976562C14.1865 0.000976562 -0.0753195 12.285 -6.97985e-05 27.1881C0.0760549 42.0281 14.2777 54.1546 31.9911 54.1546C49.5569 54.1546 64.0062 42.135 63.9997 27.0774C63.9933 12.1513 49.7207 0.000976562 32.0087 0.000976562ZM56.8077 40.5909L49.4785 34.3892C52.1441 29.8135 52.144 24.3477 49.4785 19.7664L56.8056 13.5666C59.8784 17.5961 61.4977 22.2408 61.4998 27.0783C61.5018 31.9197 59.8833 36.5647 56.8077 40.5909ZM20.3268 37.535C13.4546 32.0438 13.282 22.903 19.6411 17.2009C25.9777 11.5266 36.7512 11.0923 43.673 16.6205C50.5452 22.1117 50.7179 31.2526 44.3588 36.9547C38.0713 42.585 27.2918 43.0977 20.3268 37.535ZM55.3407 11.8142L48.1821 17.8716C47.3795 16.8616 46.4454 15.9265 45.389 15.0823C44.6054 14.4565 43.7645 13.8896 42.8793 13.3856L50.0404 7.3261C52.0262 8.6279 53.8031 10.1325 55.3407 11.8142ZM47.971 6.08575L40.6411 12.2878C35.2797 10.0472 28.9096 9.98502 23.3668 12.2947L16.0331 6.08935C20.7976 3.4869 26.2893 2.11635 32.0087 2.11635C37.7277 2.11635 43.2149 3.48564 47.971 6.08575ZM13.9622 7.32874L21.1251 13.3895C19.9237 14.07 18.8166 14.859 17.8232 15.7485C17.0846 16.4109 16.4147 17.1224 15.8184 17.8722L8.65802 11.8133C10.1956 10.1333 11.9738 8.63002 13.9622 7.32874ZM7.19215 13.5648L14.5212 19.7664C11.8556 24.3421 11.8558 29.8079 14.5212 34.3892L7.19415 40.5891C4.14379 36.5896 2.52455 31.9799 2.50005 27.179C2.4753 22.3008 4.09404 17.6207 7.19215 13.5648ZM8.6589 42.3415L15.8176 36.284C16.6202 37.294 17.5544 38.2291 18.6107 39.0732C19.3944 39.6991 20.2352 40.2659 21.1205 40.77L13.9599 46.8288C11.9743 45.5291 10.1973 44.0248 8.6589 42.3415ZM16.0299 48.069L23.3586 41.8679C28.7201 44.1085 35.0902 44.1707 40.6329 41.861L47.9666 48.0664C43.2024 50.6689 37.7107 52.0393 31.9911 52.0393C26.2727 52.0392 20.7861 50.6698 16.0299 48.069ZM50.0376 46.8269L42.8745 40.766C44.0759 40.0854 45.183 39.2965 46.1764 38.407C46.915 37.7446 47.5849 37.0331 48.1812 36.2833L55.3417 42.3422C53.8042 44.023 52.0262 45.5264 50.0376 46.8269Z" fill="#8B243F" fill-opacity="0.2"/>
<path d="M38 32.1538C38.6904 32.1538 39.25 31.6803 39.25 31.0961C39.25 30.512 38.6904 30.0384 38 30.0384C37.3097 30.0384 36.75 30.512 36.75 31.0961C36.75 31.6803 37.3097 32.1538 38 32.1538Z" fill="#8B243F" fill-opacity="0.2"/>
<path d="M37.0004 19.6731C34.5174 19.6731 32.9424 20.8726 32.0004 22.0312C31.0584 20.8726 29.4834 19.6731 27.0004 19.6731C23.3682 19.6731 20.7504 22.2449 20.7504 25.3677C20.7504 28.7999 23.8724 31.0506 28.5979 34.4574C29.4214 35.0511 30.2729 35.6651 31.1774 36.3345C31.413 36.5089 31.7066 36.5962 32.0004 36.5962C32.2941 36.5962 32.5877 36.509 32.8234 36.3346C33.348 35.9462 33.8934 35.5479 34.5915 35.043C35.1162 34.6635 35.1781 33.9959 34.7295 33.5517C34.281 33.1077 33.4921 33.0554 32.9671 33.435C32.6115 33.6922 32.295 33.922 32.0004 34.1374C31.3862 33.6886 30.7959 33.263 30.2192 32.8473C25.8734 29.7143 23.2504 27.8232 23.2504 25.3677C23.2504 23.3272 24.8625 21.7885 27.0004 21.7885C29.7851 21.7885 30.7562 24.597 30.7949 24.7126C30.9437 25.1721 31.4374 25.4904 32.0004 25.4904C32.5634 25.4904 33.0569 25.172 33.2059 24.7126C33.2154 24.6833 34.1862 21.7885 37.0004 21.7885C39.1382 21.7885 40.7504 23.3272 40.7504 25.3677C40.7504 25.9181 40.6225 26.441 40.3591 26.9663C40.0897 27.5042 40.3865 28.1249 41.0221 28.353C41.6579 28.5809 42.3914 28.3298 42.6609 27.792C43.0575 27.0004 43.2504 26.2073 43.2504 25.3676C43.2504 22.2448 40.632 19.6731 37.0004 19.6731Z" fill="#8B243F" fill-opacity="0.2"/>
</svg>
