<svg width="23" height="16" viewBox="0 0 23 16" fill="none" xmlns="http://www.w3.org/2000/svg">
<path d="M16.25 0C13.767 0 12.192 1.07075 11.25 2.10495C10.308 1.07075 8.73301 0 6.25 0C2.61788 0 0 2.29567 0 5.08324C0 8.14696 3.122 10.156 7.8475 13.1971C8.67101 13.727 9.52251 14.2751 10.427 14.8726C10.6626 15.0283 10.9563 15.1062 11.25 15.1062C11.5438 15.1062 11.8374 15.0284 12.073 14.8727C12.5976 14.526 13.143 14.1705 13.8411 13.7197C14.3659 13.381 14.4278 12.785 13.9791 12.3886C13.5306 11.9922 12.7418 11.9455 12.2168 12.2844C11.8611 12.514 11.5446 12.7191 11.25 12.9114C10.6359 12.5108 10.0455 12.1308 9.46888 11.7598C5.123 8.96317 2.5 7.27505 2.5 5.08324C2.5 3.26181 4.11213 1.88828 6.25 1.88828C9.03476 1.88828 10.0059 4.39524 10.0445 4.49844C10.1934 4.90857 10.687 5.19276 11.25 5.19276C11.813 5.19276 12.3065 4.90848 12.4555 4.49844C12.465 4.47228 13.4359 1.88828 16.25 1.88828C18.3879 1.88828 20 3.26181 20 5.08324C20 5.57447 19.8721 6.04125 19.6088 6.51021C19.3394 6.9903 19.6361 7.54441 20.2718 7.74797C20.9075 7.95143 21.641 7.72729 21.9105 7.2472C22.3071 6.54061 22.5 5.83269 22.5 5.08314C22.5 2.29558 19.8816 0 16.25 0Z" fill="#E5E5E5"/>
</svg>
