<svg width="23" height="15" viewBox="0 0 23 15" fill="none" xmlns="http://www.w3.org/2000/svg">
<path d="M16.25 0C13.767 0 12.192 1.03673 11.25 2.03809C10.308 1.03673 8.73301 0 6.25 0C2.61788 0 0 2.22275 0 4.92176C0 7.88817 3.122 9.83338 7.8475 12.7778C8.67101 13.291 9.52251 13.8216 10.427 14.4002C10.6626 14.5509 10.9563 14.6263 11.25 14.6263C11.5438 14.6263 11.8374 14.551 12.073 14.4003C12.5976 14.0646 13.143 13.7203 13.8411 13.2839C14.3659 12.9559 14.4278 12.3789 13.9791 11.9951C13.5306 11.6113 12.7418 11.5661 12.2168 11.8941C11.8611 12.1165 11.5446 12.3151 11.25 12.5012C10.6359 12.1134 10.0455 11.7455 9.46888 11.3862C5.123 8.67845 2.5 7.04396 2.5 4.92176C2.5 3.15819 4.11213 1.82829 6.25 1.82829C9.03476 1.82829 10.0059 4.25563 10.0445 4.35554C10.1934 4.75265 10.687 5.02781 11.25 5.02781C11.813 5.02781 12.3065 4.75256 12.4555 4.35554C12.465 4.33022 13.4359 1.82829 16.25 1.82829C18.3879 1.82829 20 3.15819 20 4.92176C20 5.39739 19.8721 5.84935 19.6088 6.3034C19.3394 6.76825 19.6361 7.30476 20.2718 7.50185C20.9075 7.69885 21.641 7.48183 21.9105 7.01699C22.3071 6.33284 22.5 5.64741 22.5 4.92167C22.5 2.22265 19.8816 0 16.25 0Z" fill="#E5E5E5"/>
</svg>
